<svg width="147" height="27" viewBox="0 0 147 27" fill="none" xmlns="http://www.w3.org/2000/svg">
<path d="M34.8768 20.6175V6.15752H38.3568L42.1468 17.2075L45.9768 6.15752H49.4368V20.6175H46.9668V9.27752L43.1568 20.6175H41.1268L37.3468 9.34752V20.6175H34.8768Z" fill="black"/>
<path d="M58.7032 20.8175C57.3698 20.8175 56.2165 20.5242 55.2432 19.9375C54.2765 19.3509 53.5265 18.5042 52.9932 17.3975C52.4665 16.2909 52.2032 14.9642 52.2032 13.4175C52.2032 11.8575 52.4698 10.5209 53.0032 9.40752C53.5365 8.29419 54.2898 7.44085 55.2632 6.84752C56.2432 6.25419 57.3898 5.95752 58.7032 5.95752C60.0165 5.95752 61.1532 6.25419 62.1132 6.84752C63.0798 7.44085 63.8265 8.29419 64.3532 9.40752C64.8798 10.5209 65.1432 11.8575 65.1432 13.4175C65.1432 14.9642 64.8832 16.2909 64.3632 17.3975C63.8432 18.4975 63.0998 19.3442 62.1332 19.9375C61.1665 20.5242 60.0232 20.8175 58.7032 20.8175ZM58.7032 18.7775C59.4898 18.7775 60.1665 18.5942 60.7332 18.2275C61.2998 17.8542 61.7332 17.2775 62.0332 16.4975C62.3398 15.7109 62.4932 14.6942 62.4932 13.4475C62.4932 12.1809 62.3398 11.1475 62.0332 10.3475C61.7265 9.54085 61.2898 8.94752 60.7232 8.56752C60.1565 8.18752 59.4832 7.99752 58.7032 7.99752C57.9165 7.99752 57.2365 8.19085 56.6632 8.57752C56.0965 8.95752 55.6565 9.55085 55.3432 10.3575C55.0298 11.1575 54.8732 12.1875 54.8732 13.4475C54.8732 14.6942 55.0298 15.7109 55.3432 16.4975C55.6565 17.2775 56.0965 17.8542 56.6632 18.2275C57.2365 18.5942 57.9165 18.7775 58.7032 18.7775Z" fill="black"/>
<path d="M67.9041 6.15752C67.9641 6.15752 68.1408 6.15752 68.4341 6.15752C68.7274 6.15752 69.0741 6.15752 69.4741 6.15752C69.8808 6.15752 70.2908 6.16085 70.7041 6.16752C71.1241 6.16752 71.4874 6.17085 71.7941 6.17752C73.5541 6.21085 74.9841 6.51419 76.0841 7.08752C77.1908 7.65419 78.0008 8.46419 78.5141 9.51752C79.0341 10.5642 79.2941 11.8275 79.2941 13.3075C79.2941 14.8542 79.0174 16.1709 78.4641 17.2575C77.9174 18.3442 77.0774 19.1775 75.9441 19.7575C74.8174 20.3309 73.3841 20.6175 71.6441 20.6175H67.9041V6.15752ZM70.3741 8.16752V18.6075H71.6841C72.6774 18.6075 73.5541 18.4375 74.3141 18.0975C75.0741 17.7509 75.6674 17.1909 76.0941 16.4175C76.5274 15.6442 76.7441 14.6109 76.7441 13.3175C76.7441 12.0642 76.5441 11.0609 76.1441 10.3075C75.7441 9.55419 75.1708 9.01085 74.4241 8.67752C73.6774 8.33752 72.7841 8.16752 71.7441 8.16752H70.3741Z" fill="black"/>
<path d="M93.1843 15.3375C93.1843 16.4842 92.9976 17.4675 92.6243 18.2875C92.2509 19.1009 91.6543 19.7275 90.8343 20.1675C90.0209 20.6009 88.9476 20.8175 87.6143 20.8175C86.2809 20.8175 85.2043 20.5975 84.3843 20.1575C83.5709 19.7109 82.9809 19.0709 82.6143 18.2375C82.2476 17.3975 82.0643 16.3842 82.0643 15.1975V6.15752H84.5543V15.4475C84.5543 16.5675 84.8276 17.3942 85.3743 17.9275C85.9276 18.4609 86.6743 18.7275 87.6143 18.7275C88.2476 18.7275 88.7976 18.6109 89.2643 18.3775C89.7309 18.1442 90.0909 17.7875 90.3443 17.3075C90.5976 16.8209 90.7243 16.2009 90.7243 15.4475V6.15752H93.1843V15.3375Z" fill="black"/>
<path d="M96.3516 6.15752H98.8116V18.5175H105.342V20.6175H96.3416L96.3516 6.15752Z" fill="black"/>
<path d="M107.108 20.6175L112.308 6.15752H114.938L120.128 20.6175H117.688L116.398 16.9875H110.878L109.558 20.6175H107.108ZM111.438 14.8275H115.798L113.628 8.52752L111.438 14.8275Z" fill="black"/>
<path d="M133.373 20.6175H130.833L128.343 14.7475H124.983V20.6175H122.553V6.15752H128.423C129.529 6.15752 130.439 6.33085 131.153 6.67752C131.873 7.01752 132.406 7.50085 132.753 8.12752C133.099 8.74752 133.273 9.47419 133.273 10.3075C133.273 11.0809 133.146 11.7309 132.893 12.2575C132.639 12.7775 132.309 13.2042 131.903 13.5375C131.503 13.8642 131.073 14.1309 130.613 14.3375L133.373 20.6175ZM127.873 12.8175C128.793 12.8175 129.509 12.6042 130.023 12.1775C130.543 11.7509 130.803 11.1575 130.803 10.3975C130.803 9.65085 130.563 9.07419 130.083 8.66752C129.603 8.26085 128.969 8.05752 128.183 8.05752H124.983V12.8175H127.873Z" fill="black"/>
<path d="M141.131 20.8175C140.431 20.8175 139.748 20.7309 139.081 20.5575C138.415 20.3775 137.808 20.1142 137.261 19.7675C136.721 19.4142 136.271 18.9775 135.911 18.4575C135.551 17.9309 135.331 17.3175 135.251 16.6175H137.771C137.878 17.1042 138.088 17.5142 138.401 17.8475C138.715 18.1809 139.105 18.4342 139.571 18.6075C140.045 18.7809 140.561 18.8675 141.121 18.8675C141.721 18.8675 142.261 18.7875 142.741 18.6275C143.228 18.4675 143.611 18.2342 143.891 17.9275C144.178 17.6209 144.321 17.2442 144.321 16.7975C144.321 16.4042 144.218 16.0709 144.011 15.7975C143.805 15.5242 143.515 15.3009 143.141 15.1275C142.775 14.9475 142.345 14.8042 141.851 14.6975L139.191 14.1175C138.118 13.8975 137.268 13.4709 136.641 12.8375C136.015 12.2042 135.695 11.3609 135.681 10.3075C135.675 9.43419 135.905 8.67419 136.371 8.02752C136.845 7.37419 137.488 6.87085 138.301 6.51752C139.115 6.15752 140.035 5.97752 141.061 5.97752C142.261 5.97752 143.271 6.17419 144.091 6.56752C144.918 6.95419 145.541 7.47419 145.961 8.12752C146.388 8.78085 146.605 9.49752 146.611 10.2775H144.151C144.091 9.70419 143.918 9.24752 143.631 8.90752C143.351 8.56752 142.991 8.32419 142.551 8.17752C142.111 8.03085 141.625 7.95752 141.091 7.95752C140.691 7.95752 140.318 8.00419 139.971 8.09752C139.625 8.19085 139.321 8.32752 139.061 8.50752C138.801 8.68752 138.598 8.90752 138.451 9.16752C138.311 9.42085 138.241 9.71085 138.241 10.0375C138.241 10.5042 138.395 10.8842 138.701 11.1775C139.015 11.4642 139.598 11.7075 140.451 11.9075L143.051 12.4875C143.858 12.6475 144.508 12.8875 145.001 13.2075C145.495 13.5275 145.871 13.8942 146.131 14.3075C146.391 14.7142 146.565 15.1309 146.651 15.5575C146.738 15.9842 146.781 16.3909 146.781 16.7775C146.781 17.5309 146.548 18.2142 146.081 18.8275C145.621 19.4409 144.968 19.9275 144.121 20.2875C143.281 20.6409 142.285 20.8175 141.131 20.8175Z" fill="black"/>
<path d="M22.9998 13.1177C22.9998 15.2736 22.2665 17.3655 20.9203 19.0495C19.5741 20.7335 17.6951 21.9096 15.5921 22.3844L13.4998 13.1177H22.9998Z" fill="#143C3C"/>
<path d="M10.7382 4.02764C12.801 3.4009 15.0157 3.49448 17.0183 4.29299C19.021 5.0915 20.6925 6.54745 21.7581 8.42163L13.4998 13.1174L10.7382 4.02764Z" fill="#143C3C"/>
<path d="M8.39185 21.1275C6.57403 19.9683 5.20456 18.2253 4.50846 16.1848C3.81236 14.1443 3.83103 11.9277 4.5614 9.89924L13.4997 13.1175L8.39185 21.1275Z" fill="#143C3C"/>
<circle cx="13.4998" cy="13.1177" r="2.5" fill="#83A17D"/>
</svg>
