<svg width="79" height="79" viewBox="0 0 79 79" fill="none" xmlns="http://www.w3.org/2000/svg">
<path fill-rule="evenodd" clip-rule="evenodd" d="M37.3247 75.1942L34.3377 74.9149L36.8635 47.9007C36.464 47.7903 36.0773 47.652 35.7053 47.488L20.5869 68.6073L18.1475 66.861L33.2173 45.8096C32.8941 45.4956 32.5963 45.1566 32.3268 44.7961L8.37845 56.4178L7.06868 53.7188L30.9814 42.1143C30.7673 41.3892 30.648 40.6266 30.6366 39.8422L3.70411 36.9753L4.02167 33.9922L31.1198 36.8767C31.2826 36.4147 31.4837 35.9723 31.7191 35.5527L9.20758 19.8836L10.9214 17.4214L33.6336 33.2302C33.9808 32.9353 34.3515 32.6683 34.742 32.432L22.2741 7.19443L24.9638 5.86567L37.5558 31.3546C37.8401 31.301 38.1289 31.2616 38.4214 31.2373L41.0402 3.22759L44.0272 3.50686L41.4084 31.5165C41.9672 31.6708 42.5012 31.8799 43.0046 32.1374L60.0575 8.31574L62.4969 10.062L45.393 33.955C45.636 34.2194 45.8622 34.499 46.0702 34.792L71.8442 22.2843L73.154 24.9833L47.3484 37.5063C47.4465 37.8718 47.5206 38.2462 47.5691 38.6277L75.6172 41.6134L75.2996 44.5965L47.4176 41.6285C47.3394 41.968 47.2411 42.299 47.1242 42.6203L70.0156 58.5538L68.3018 61.0161L45.6081 45.2202C45.3603 45.5107 45.0934 45.784 44.8098 46.0381L56.854 70.4181L54.1643 71.7468L42.2458 47.6214C41.4906 47.9189 40.6855 48.1106 39.8504 48.18L37.3247 75.1942Z" fill="#83A17D"/>
</svg>
