<svg width="110" height="32" viewBox="0 0 110 32" fill="none" xmlns="http://www.w3.org/2000/svg">
<path d="M11.152 1.176C5.076 1.176 0.147 5.733 0.147 12.181C0.147 18.66 5.076 23.186 11.152 23.186C16.949 23.186 21.165 18.939 21.816 13.948V11.189H9.943V14.01H18.034C17.507 17.637 15.058 19.993 11.152 19.993C6.874 19.993 3.774 16.924 3.774 12.181C3.774 7.438 6.874 4.4 11.152 4.4C13.725 4.4 15.771 5.485 16.918 7.655H21.165C19.522 3.439 15.647 1.176 11.152 1.176ZM41.5766 14.444C41.5766 9.081 37.7326 5.64 32.8656 5.64C27.9986 5.64 24.1546 9.081 24.1546 14.444C24.1546 19.807 27.8436 23.279 32.7106 23.279C37.6086 23.279 41.5766 19.807 41.5766 14.444ZM27.7506 14.444C27.7506 10.569 30.1376 8.709 32.8036 8.709C35.4386 8.709 37.9496 10.569 37.9496 14.444C37.9496 18.319 35.3456 20.21 32.7106 20.21C30.0446 20.21 27.7506 18.319 27.7506 14.444ZM61.3451 14.444C61.3451 9.081 57.5011 5.64 52.6341 5.64C47.7671 5.64 43.9231 9.081 43.9231 14.444C43.9231 19.807 47.6121 23.279 52.4791 23.279C57.3771 23.279 61.3451 19.807 61.3451 14.444ZM47.5191 14.444C47.5191 10.569 49.9061 8.709 52.5721 8.709C55.2071 8.709 57.7181 10.569 57.7181 14.444C57.7181 18.319 55.1141 20.21 52.4791 20.21C49.8131 20.21 47.5191 18.319 47.5191 14.444ZM63.6607 14.382C63.6607 19.652 67.2257 23.279 71.7207 23.279C74.5107 23.279 76.5567 21.884 77.6417 20.427V23.279C77.6417 26.689 75.5957 28.363 72.8677 28.363C70.4187 28.363 68.5277 27.154 68.0007 25.387H64.4977C64.9317 29.169 68.3107 31.432 72.8677 31.432C78.1997 31.432 81.2067 27.929 81.2067 23.279V5.919H77.6417V8.399C76.5877 6.942 74.5107 5.64 71.7207 5.64C67.2257 5.64 63.6607 9.112 63.6607 14.382ZM77.6417 14.444C77.6417 18.133 75.1307 20.21 72.4647 20.21C69.8297 20.21 67.2877 18.071 67.2877 14.382C67.2877 10.693 69.8297 8.709 72.4647 8.709C75.1307 8.709 77.6417 10.786 77.6417 14.444ZM85.8484 23H89.3824V0.0599997H85.8484V23ZM101.214 8.616C103.849 8.616 105.926 10.29 105.988 12.925H96.5333C96.9053 10.228 98.8273 8.616 101.214 8.616ZM109.212 17.916H105.399C104.748 19.249 103.539 20.303 101.369 20.303C98.7653 20.303 96.7503 18.598 96.5023 15.777H109.553C109.646 15.188 109.677 14.63 109.677 14.041C109.677 9.019 106.236 5.64 101.369 5.64C96.3163 5.64 92.8443 9.081 92.8443 14.444C92.8443 19.807 96.4713 23.279 101.369 23.279C105.554 23.279 108.251 20.892 109.212 17.916Z" fill="#143C3C"/>
</svg>
