<svg width="146" height="19" viewBox="0 0 146 19" fill="none" xmlns="http://www.w3.org/2000/svg">
<path d="M12.1519 10.9922L11.6016 11.0034C11.1074 12.4409 10.7031 13.6875 10.3887 14.7432C10.0742 15.7913 9.81966 16.4764 9.625 16.7983C9.43783 17.1128 9.23193 17.3674 9.00732 17.562C8.7902 17.7492 8.50944 17.8914 8.16504 17.9888C7.59603 18.146 6.82487 18.2246 5.85156 18.2246C4.87826 18.2246 3.94238 18.116 3.04395 17.8989C2.15299 17.6818 1.44173 17.416 0.910156 17.1016C0.378581 16.7796 0.112793 16.4689 0.112793 16.1694C0.112793 15.9972 0.187663 15.8625 0.337402 15.7651C0.479655 15.6603 0.648112 15.6079 0.842773 15.6079C1.53158 15.6079 2.03695 15.4993 2.35889 15.2822C2.68831 15.0576 2.99902 14.6496 3.29102 14.0581C3.58301 13.4666 3.87126 12.7816 4.15576 12.0029C4.44775 11.2243 4.71729 10.5018 4.96436 9.83545C5.21891 9.16911 5.5109 8.48779 5.84033 7.7915C6.54411 6.29411 7.41634 5.2946 8.45703 4.79297C8.95866 4.55339 9.625 4.36995 10.4561 4.24268C11.2871 4.10791 11.9347 4.04053 12.3989 4.04053C12.8631 4.04053 13.1663 4.04801 13.3086 4.06299C13.4508 4.07048 13.5931 4.09294 13.7354 4.13037C14.0273 4.20524 14.1733 4.36995 14.1733 4.62451C14.1733 4.78174 14.1434 4.92773 14.0835 5.0625C14.0236 5.19727 13.8402 5.52295 13.5332 6.03955C13.2337 6.54867 12.7171 7.83643 11.9834 9.90283C15.959 9.43864 17.9468 7.98617 17.9468 5.54541C17.9468 4.72184 17.6885 4.10417 17.1719 3.69238C16.6403 3.2806 16.1012 3.02979 15.5547 2.93994C14.7386 2.80518 13.8402 2.73779 12.8594 2.73779C11.8861 2.73779 10.8678 2.83138 9.80469 3.01855C8.74154 3.19824 7.91423 3.40039 7.32275 3.625C6.73877 3.84212 6.21468 4.04427 5.75049 4.23145C5.29378 4.41113 5.00179 4.50098 4.87451 4.50098C4.4777 4.50098 4.2793 4.36995 4.2793 4.10791C4.2793 3.77848 4.49268 3.479 4.91943 3.20947C6.40186 2.25863 8.09766 1.53613 10.0068 1.04199C11.916 0.547852 14.3081 0.300781 17.1831 0.300781C18.658 0.300781 19.8896 0.454264 20.8779 0.76123C21.8662 1.06071 22.6224 1.37891 23.1465 1.71582C23.6781 2.04525 24.1123 2.48324 24.4492 3.02979C24.7861 3.57633 24.9546 4.17529 24.9546 4.82666C24.9546 5.47803 24.8311 6.05452 24.584 6.55615C24.3369 7.05029 23.9963 7.47705 23.562 7.83643C23.1353 8.18831 22.5924 8.50651 21.9336 8.79102C20.7956 9.27767 19.257 9.67448 17.3179 9.98145C18.8003 9.98145 19.972 10.236 20.833 10.7451C21.694 11.2542 22.1245 11.973 22.1245 12.9014L21.9224 14.9004C21.9224 15.4395 22.1956 15.7464 22.7422 15.8213C22.9743 15.8587 23.2064 15.8887 23.4385 15.9111C23.985 15.9561 24.2583 16.1657 24.2583 16.54C24.2583 17.0492 23.6219 17.4946 22.3491 17.8765C21.0838 18.2583 19.695 18.4492 18.1826 18.4492C15.3301 18.4492 13.9038 17.6144 13.9038 15.9448C13.9038 15.5405 14.0273 14.964 14.2744 14.2153C14.5215 13.4666 14.645 12.965 14.645 12.7104C14.645 12.2388 14.4504 11.8345 14.061 11.4976C13.6717 11.1606 13.0353 10.9922 12.1519 10.9922ZM37.499 2.16504C37.499 2.96615 37.0535 3.66618 36.1626 4.26514C35.2791 4.85661 34.3433 5.15234 33.355 5.15234C32.3742 5.15234 31.6105 4.95394 31.064 4.55713C30.5174 4.15283 30.2441 3.66243 30.2441 3.08594C30.2441 2.50944 30.4538 1.98535 30.873 1.51367C31.2923 1.04199 31.8351 0.671387 32.5015 0.401855C33.1753 0.132324 33.9053 -0.00244141 34.6914 -0.00244141C35.4775 -0.00244141 36.1401 0.207194 36.6792 0.626465C37.2257 1.03825 37.499 1.55111 37.499 2.16504ZM34.3433 16.1021C34.8524 16.1021 35.5412 15.9823 36.4097 15.7427C37.2856 15.4956 37.922 15.2785 38.3188 15.0913C38.7157 14.8966 38.9927 14.7993 39.1499 14.7993C39.4644 14.7993 39.6216 14.9565 39.6216 15.271C39.6216 15.4132 39.5055 15.5742 39.2734 15.7539C38.5098 16.3229 37.1359 16.9144 35.1519 17.5283C33.1678 18.1423 31.3971 18.4492 29.8398 18.4492C28.874 18.4492 28.0654 18.2957 27.4141 17.9888C26.7627 17.6818 26.437 17.2139 26.437 16.585C26.437 16.2031 26.7627 15.2673 27.4141 13.7773C28.6419 10.9548 29.2559 8.82845 29.2559 7.39844L29.2446 6.97168C29.2446 6.59733 29.6077 6.41016 30.334 6.41016L35.8818 6.28662C36.0765 6.28662 36.2225 6.34652 36.3198 6.46631C36.4172 6.57861 36.4658 6.70589 36.4658 6.84814C36.4658 7.36475 36.23 8.21826 35.7583 9.40869C35.2866 10.5916 34.8149 11.7559 34.3433 12.9014C33.8716 14.0469 33.6357 14.8667 33.6357 15.3608C33.6357 15.855 33.8716 16.1021 34.3433 16.1021ZM40.2729 17.2476C38.8654 16.4015 38.1616 15.1175 38.1616 13.3955C38.1616 12.4971 38.3451 11.6548 38.7119 10.8687C39.0863 10.075 39.5954 9.38997 40.2393 8.81348C40.8906 8.23698 41.6468 7.74284 42.5078 7.33105C44.2298 6.5 46.2026 6.08447 48.4263 6.08447C52.7987 6.08447 55.1608 7.46956 55.5127 10.2397C56.0368 10.4119 56.5758 10.498 57.1299 10.498C57.6914 10.498 58.1593 10.4569 58.5337 10.3745C58.908 10.2922 59.2599 10.1686 59.5894 10.0039C59.9263 9.83919 60.1659 9.75684 60.3081 9.75684C60.5926 9.75684 60.7349 9.89535 60.7349 10.1724C60.7349 10.4494 60.514 10.7376 60.0723 11.0371C59.2412 11.6061 58.1406 11.8906 56.7705 11.8906C56.2539 11.8906 55.8346 11.8644 55.5127 11.812C55.2731 13.6987 54.2998 15.2673 52.5928 16.5176C51.7767 17.1165 50.7734 17.5882 49.583 17.9326C48.4001 18.277 47.1722 18.4492 45.8994 18.4492C44.6341 18.4492 43.5485 18.3481 42.6426 18.146C41.7367 17.9513 40.9468 17.6519 40.2729 17.2476ZM44.3496 14.3838C44.3496 15.7689 44.855 16.4614 45.8657 16.4614C46.5096 16.4614 47.1086 16.1095 47.6626 15.4058C48.2241 14.702 48.6584 13.8298 48.9653 12.7891C49.2798 11.7484 49.437 10.689 49.437 9.61084C49.437 8.52523 49.0589 7.98242 48.3027 7.98242C47.6439 7.98242 47.0037 8.29313 46.3823 8.91455C45.7684 9.53597 45.2743 10.3446 44.8999 11.3403C44.533 12.3286 44.3496 13.3431 44.3496 14.3838ZM70.5503 15.5742L72.8188 15.3608C73.4852 15.3608 73.8184 15.5405 73.8184 15.8999C73.8184 16.2518 73.6012 16.5588 73.167 16.8208C72.1038 17.4572 70.9658 17.8877 69.7529 18.1123C68.54 18.3369 67.3571 18.4492 66.2041 18.4492C65.0586 18.4492 64.2388 18.4268 63.7446 18.3818C63.258 18.3444 62.7713 18.262 62.2847 18.1348C61.8055 18.0075 61.4124 17.8353 61.1055 17.6182C60.4391 17.139 60.106 16.4015 60.106 15.4058C60.106 13.6763 61.1504 11.5013 63.2393 8.88086C64.819 6.9043 66.1592 5.7513 67.2598 5.42188C67.8363 5.24967 68.5063 5.16357 69.27 5.16357C70.0412 5.16357 70.4268 5.45557 70.4268 6.03955C70.4268 6.23421 70.3706 6.46631 70.2583 6.73584C69.8315 7.61182 69.4572 8.64876 69.1353 9.84668C68.8133 11.0371 68.6523 12.1077 68.6523 13.0586C68.6523 14.7357 69.285 15.5742 70.5503 15.5742ZM59.1514 6.33154C58.7695 6.33154 58.5786 6.11068 58.5786 5.66895C58.5786 5.18229 58.7246 4.51595 59.0166 3.66992C59.5856 2.06022 60.1958 1.16553 60.8472 0.98584C61.0269 0.918457 61.5697 0.884766 62.4756 0.884766L70.0674 1.06445C70.4417 1.06445 71.5311 0.952148 73.3354 0.727539C75.1473 0.50293 76.0981 0.390625 76.188 0.390625C77.1538 0.390625 77.6367 0.720052 77.6367 1.37891C77.6367 1.6709 77.5319 2.13509 77.3223 2.77148C77.1201 3.40039 76.8506 3.99561 76.5137 4.55713C76.1768 5.11865 75.866 5.39941 75.5815 5.39941C75.4093 5.39941 75.02 5.2609 74.4136 4.98389C72.5793 4.14535 71.1006 3.72607 69.9775 3.72607C68.8545 3.72607 67.5555 3.83464 66.0806 4.05176C64.6056 4.26888 63.5088 4.52718 62.79 4.82666C62.0713 5.11865 61.4424 5.38818 60.9033 5.63525C59.9001 6.09945 59.3161 6.33154 59.1514 6.33154ZM87.4072 2.16504C87.4072 2.96615 86.9618 3.66618 86.0708 4.26514C85.1873 4.85661 84.2515 5.15234 83.2632 5.15234C82.2824 5.15234 81.5187 4.95394 80.9722 4.55713C80.4256 4.15283 80.1523 3.66243 80.1523 3.08594C80.1523 2.50944 80.362 1.98535 80.7812 1.51367C81.2005 1.04199 81.7433 0.671387 82.4097 0.401855C83.0835 0.132324 83.8135 -0.00244141 84.5996 -0.00244141C85.3857 -0.00244141 86.0483 0.207194 86.5874 0.626465C87.134 1.03825 87.4072 1.55111 87.4072 2.16504ZM84.2515 16.1021C84.7606 16.1021 85.4494 15.9823 86.3179 15.7427C87.1938 15.4956 87.8302 15.2785 88.2271 15.0913C88.6239 14.8966 88.9009 14.7993 89.0581 14.7993C89.3726 14.7993 89.5298 14.9565 89.5298 15.271C89.5298 15.4132 89.4137 15.5742 89.1816 15.7539C88.418 16.3229 87.0441 16.9144 85.0601 17.5283C83.076 18.1423 81.3053 18.4492 79.748 18.4492C78.7822 18.4492 77.9736 18.2957 77.3223 17.9888C76.6709 17.6818 76.3452 17.2139 76.3452 16.585C76.3452 16.2031 76.6709 15.2673 77.3223 13.7773C78.5501 10.9548 79.1641 8.82845 79.1641 7.39844L79.1528 6.97168C79.1528 6.59733 79.516 6.41016 80.2422 6.41016L85.79 6.28662C85.9847 6.28662 86.1307 6.34652 86.228 6.46631C86.3254 6.57861 86.374 6.70589 86.374 6.84814C86.374 7.36475 86.1382 8.21826 85.6665 9.40869C85.1948 10.5916 84.7231 11.7559 84.2515 12.9014C83.7798 14.0469 83.5439 14.8667 83.5439 15.3608C83.5439 15.855 83.7798 16.1021 84.2515 16.1021ZM110.239 14.7993C110.516 14.7993 110.654 14.9303 110.654 15.1924C110.654 15.4469 110.516 15.6715 110.239 15.8662C109.969 16.0609 109.569 16.2855 109.037 16.54C108.506 16.7871 107.843 17.0604 107.049 17.3599C106.263 17.6593 105.35 17.9139 104.309 18.1235C103.276 18.3407 102.288 18.4492 101.344 18.4492C99.1206 18.4492 98.0088 17.9401 98.0088 16.9219C98.0088 16.263 98.3831 15.0876 99.1318 13.3955C99.888 11.696 100.266 10.5505 100.266 9.95898C100.266 9.29264 99.7458 8.95947 98.7051 8.95947C98.2334 8.95947 97.6981 9.01937 97.0991 9.13916C96.8146 10.1424 96.3055 11.7371 95.5718 13.9233C94.8455 16.1095 94.4338 17.3524 94.3364 17.6519C94.2466 17.9513 94.0482 18.1011 93.7412 18.1011L87.9575 18.2246C87.8752 18.2246 87.7816 18.1722 87.6768 18.0674C87.5794 17.9701 87.5308 17.854 87.5308 17.7192C87.5308 17.577 87.688 17.0866 88.0024 16.248C88.3244 15.402 88.6763 14.4961 89.0581 13.5303C89.4474 12.557 89.7993 11.4901 90.1138 10.3296C90.4357 9.16162 90.5967 8.1958 90.5967 7.43213L90.5854 7.00537C90.5854 6.63102 90.9486 6.44385 91.6748 6.44385L96.998 6.32031C97.1927 6.32031 97.3387 6.38021 97.436 6.5C97.5334 6.6123 97.582 6.75456 97.582 6.92676C97.582 7.09147 97.5409 7.361 97.4585 7.73535C100.094 6.63477 102.258 6.08447 103.95 6.08447C104.668 6.08447 105.324 6.28288 105.915 6.67969C106.574 7.12142 106.903 7.7915 106.903 8.68994C106.903 9.61084 106.555 10.8162 105.859 12.3062C105.163 13.7961 104.814 14.717 104.814 15.0688C104.814 15.7651 105.091 16.1133 105.646 16.1133C105.997 16.1133 106.596 15.9823 107.442 15.7202C108.296 15.4507 108.925 15.2298 109.329 15.0576C109.741 14.8854 110.044 14.7993 110.239 14.7993ZM119.639 6.56738L122.592 6.18555C123.146 6.18555 123.423 6.40267 123.423 6.83691C123.423 7.27116 123.161 7.54443 122.637 7.65674C122.113 7.76156 120.93 7.90381 119.088 8.0835C118.834 8.74984 118.452 9.67448 117.943 10.8574C116.902 13.2832 116.382 14.7394 116.382 15.2261C116.382 15.7576 116.711 16.0234 117.37 16.0234C119.496 16.0234 121.406 15.6678 123.098 14.9565C123.345 14.8517 123.539 14.7993 123.682 14.7993C123.959 14.7993 124.097 14.9229 124.097 15.1699C124.097 15.417 123.917 15.6603 123.558 15.8999C122.458 16.6261 120.799 17.2326 118.583 17.7192C116.367 18.2059 114.323 18.4492 112.451 18.4492C111.388 18.4492 110.576 18.2845 110.014 17.9551C109.453 17.6182 109.172 17.1577 109.172 16.5737C109.172 15.9823 109.561 14.8779 110.34 13.2607C111.216 11.4489 111.845 9.85791 112.227 8.48779C111.762 8.51025 111.44 8.52148 111.261 8.52148C110.819 8.52148 110.598 8.3418 110.598 7.98242C110.598 7.72038 110.669 7.54443 110.812 7.45459C110.954 7.36475 111.1 7.30111 111.25 7.26367C111.407 7.22624 111.538 7.20378 111.643 7.19629C111.755 7.18132 111.908 7.16634 112.103 7.15137C112.298 7.13639 112.44 7.12516 112.53 7.11768C112.627 6.54867 112.676 6.01335 112.676 5.51172L112.665 5.08496C112.665 4.74805 113.091 4.51969 113.945 4.3999C114.229 4.36247 115.124 4.17529 116.629 3.83838C118.134 3.50146 119.055 3.33301 119.392 3.33301C119.931 3.33301 120.2 3.52018 120.2 3.89453C120.2 4.53841 120.013 5.42936 119.639 6.56738ZM124.749 17.2476C123.341 16.4015 122.637 15.1175 122.637 13.3955C122.637 12.4971 122.821 11.6548 123.188 10.8687C123.562 10.075 124.071 9.38997 124.715 8.81348C125.366 8.23698 126.122 7.74284 126.983 7.33105C128.705 6.5 130.678 6.08447 132.902 6.08447C137.274 6.08447 139.636 7.46956 139.988 10.2397C140.512 10.4119 141.051 10.498 141.605 10.498C142.167 10.498 142.635 10.4569 143.009 10.3745C143.384 10.2922 143.736 10.1686 144.065 10.0039C144.402 9.83919 144.641 9.75684 144.784 9.75684C145.068 9.75684 145.21 9.89535 145.21 10.1724C145.21 10.4494 144.99 10.7376 144.548 11.0371C143.717 11.6061 142.616 11.8906 141.246 11.8906C140.729 11.8906 140.31 11.8644 139.988 11.812C139.749 13.6987 138.775 15.2673 137.068 16.5176C136.252 17.1165 135.249 17.5882 134.059 17.9326C132.876 18.277 131.648 18.4492 130.375 18.4492C129.11 18.4492 128.024 18.3481 127.118 18.146C126.212 17.9513 125.422 17.6519 124.749 17.2476ZM128.825 14.3838C128.825 15.7689 129.331 16.4614 130.341 16.4614C130.985 16.4614 131.584 16.1095 132.138 15.4058C132.7 14.702 133.134 13.8298 133.441 12.7891C133.755 11.7484 133.913 10.689 133.913 9.61084C133.913 8.52523 133.535 7.98242 132.778 7.98242C132.119 7.98242 131.479 8.29313 130.858 8.91455C130.244 9.53597 129.75 10.3446 129.375 11.3403C129.009 12.3286 128.825 13.3431 128.825 14.3838Z" fill="#143C3C"/>
</svg>
